<?xml version="1.0" encoding="UTF-8"?><svg id="Layer_1" xmlns="http://www.w3.org/2000/svg" xmlns:xlink="http://www.w3.org/1999/xlink" viewBox="0 0 1260 1260"><defs><style>.cls-1{fill:url(#linear-gradient-3);}.cls-2{fill:url(#linear-gradient-2);}.cls-3{fill:url(#linear-gradient);}</style><linearGradient id="linear-gradient" x1="389.95" y1="358.16" x2="1352.8" y2="914.06" gradientUnits="userSpaceOnUse"><stop offset=".2" stop-color="#216e41"/><stop offset="1" stop-color="#62aa70"/></linearGradient><linearGradient id="linear-gradient-2" x1="-92.49" y1="914.09" x2="870.36" y2="358.18" xlink:href="#linear-gradient"/><linearGradient id="linear-gradient-3" x1="122.41" y1="821.61" x2="913.08" y2="1278.1" gradientUnits="userSpaceOnUse"><stop offset="0" stop-color="#62aa70"/><stop offset=".8" stop-color="#216e41"/></linearGradient></defs><path class="cls-3" d="M1148.08,1183.35c12.68-2.69,37.67-9.96,60.8-30.94,2.23-2.02,43.16-40.22,43.19-97.73.02-31.05-11.17-54.43-17.55-65.69-163.52-283.22-327.04-566.44-490.55-849.66-5.94-10.3-20.17-31.75-47.25-47.61-26.52-15.54-52.07-17.94-66.58-17.94-14.01,0-38.58,2.21-64.23,16.57-6.43,3.6-20.03,11.97-33.41,26.81-5.17,5.73-9.28,11.29-12.5,16.21-1.89,2.89-3.21,5.15-3.77,6.11-5.1,8.77-26.07,45.07-54.55,94.48-5.57,9.64-11.15,19.27-16.72,28.91,6.28-7.75,30.9-36.24,71.27-41.04,44.36-5.28,89.77,20.17,113.9,64.44,130.92,226.75,261.83,453.5,392.75,680.26,2.14,2.69,33.46,43.47,17.71,88.06-14.42,40.81-62.11,67.37-112.88,57.63,9.94,4.34,25.42,11.2,44.24,19.94,51.82,24.06,64.14,32.06,95.87,43.13,35.29,12.31,60.85,11.69,77.82,8.55,1.2-.22,2.22-.43,2.43-.47Z"/><path class="cls-2" d="M112.22,1183.35c-12.68-2.69-37.67-9.96-60.8-30.94-2.23-2.02-43.16-40.22-43.19-97.73-.02-31.05,11.17-54.43,17.55-65.69C189.29,705.78,352.81,422.55,516.32,139.33c5.94-10.3,20.17-31.75,47.25-47.61,26.52-15.54,52.07-17.94,66.58-17.94,14.01,0,38.58,2.21,64.23,16.57,6.43,3.6,20.03,11.97,33.41,26.81,5.17,5.73,9.28,11.29,12.5,16.21,1.89,2.89,3.21,5.15,3.77,6.11,5.1,8.77,26.07,45.07,54.55,94.48,5.57,9.64,11.15,19.27,16.72,28.91-6.28-7.75-30.9-36.24-71.27-41.04-44.36-5.28-89.77,20.17-113.9,64.44-130.92,226.75-261.83,453.5-392.75,680.26-2.14,2.7-33.46,43.49-17.71,88.06,14.43,40.83,62.19,67.4,113.02,57.61-14.79,6.66-29.59,13.31-44.38,19.97-31.96,14.38-63.91,28.75-95.87,43.13-35.29,12.31-60.85,11.69-77.82,8.55-1.2-.22-2.22-.43-2.43-.47Z"/><path class="cls-1" d="M1040.6,1054.57c15.75-44.58-15.57-85.37-17.71-88.06-.02-.04-.05-.08-.07-.12h0c-159.76-72.27-276.66-124.65-305.4-137.44-5.48-2.44-17.77-7.84-34.76-12.16-10.42-2.65-28.98-6.5-52.51-6.5-23.04,0-41.44,3.71-52.53,6.53-16.98,4.31-29.26,9.69-34.74,12.12-29.29,12.99-146.06,65.32-305.4,137.44-13.89,5.95-34.92,12.56-60.61,11.8-11.55-.34-23.94-.71-38.08-7.32-29.6-13.84-40.33-42.64-41.78-46.75-12.27-34.57,3.43-64.23,6.01-68.9-7.37,13.31-19.32,33.46-33.69,58.34-14.52,25.14-29.03,50.29-43.55,75.43-6.98,12.46-22.15,43.68-16.68,82.39,3.19,22.6,12.25,39.47,15.86,46.05,4.07,7.42,12.83,23.06,29.96,37.79,21.64,18.6,45.06,25.79,59.9,28.65,36.77,7.08,66.19-3.69,77.64-8.6,148.14-66.7,270.07-121.55,340.09-153.04,0,0,.02.02.02.03.13-.06.26-.13.39-.2.24-.12.39-.2.4-.2,36.52-18.32,54.59-23.85,54.59-23.85,6.04-2.04,13.12-3.95,21.15-5.24,4.45-.72,11.83-1.67,21.04-1.67,8.54,0,15.71.83,20.93,1.67,1.76.28,9.49,1.56,21.26,5.24,18.5,5.79,33.6,13.37,54.59,23.85.33.17.61.3.79.4,0,0,.02-.02.02-.03,46.38,20.85,115.53,51.96,199.98,89.97,50.78,9.71,98.46-16.84,112.88-57.63Z"/></svg>